<?xml version="1.0" encoding="utf-8"?><!-- Uploaded to: SVG Repo, www.svgrepo.com, Generator: SVG Repo Mixer Tools -->
<svg width="800px" height="800px" viewBox="0 0 36 36" xmlns="http://www.w3.org/2000/svg" xmlns:xlink="http://www.w3.org/1999/xlink" aria-hidden="true" role="img" class="iconify iconify--twemoji" preserveAspectRatio="xMidYMid meet"><path fill="#D99E82" d="M36 32a4 4 0 0 1-4 4H4a4 4 0 0 1-4-4v-9c0-2.209.791-3 3-3h30c2.209 0 3 .791 3 3v9z"></path><path fill="#662113" d="M25 20a7 7 0 1 1-14 0h14z"></path><path fill="#C1694F" d="M4 36h28a4 4 0 0 0 4-4H0a4 4 0 0 0 4 4z"></path><path fill="#77B255" d="M26.716 8h-4.783V2a2 2 0 0 0-2-2h-4.001a2 2 0 0 0-1.999 2v6H9.148c-1.223 0-1.516.623-.651 1.489l7.863 7.863c.865.865 2.28.865 3.146 0l7.863-7.863C28.232 8.623 27.94 8 26.716 8z"></path></svg>